<svg width="698" height="223" viewBox="0 0 698 223" fill="none" xmlns="http://www.w3.org/2000/svg">
<path d="M220.329 0.740505C115.648 2.4338 21.4118 30.5606 0.943592 113.493L0 117.617C34.9517 62.436 83.7277 11.9796 227.128 11.9796C263.146 11.9796 305.149 15.1594 354.384 22.2493C403.638 29.3391 460.144 40.3326 525.187 55.9795C474.233 31.9566 347.307 0.650024 230.65 0.650024L220.329 0.740505Z" fill="#0A2F54"/>
<path d="M568.45 66.2491L591.975 68.4659L570.163 77.5464L575.32 100.6L559.958 82.6586L539.612 94.6861L551.924 74.5217L534.203 58.9007L557.185 64.3813L566.563 42.6981L568.45 66.2491Z" fill="#0A2F54"/>
<path d="M66.1032 121.682V121.475C66.1032 100.645 81.6725 83.3889 103.349 83.3889C116.708 83.3889 124.703 88.1198 132.071 95.0674L126.39 101.162C120.185 95.2743 113.238 91.0669 103.246 91.0669C86.9398 91.0669 74.7377 104.322 74.7377 121.255V121.469C74.7377 138.511 87.0432 151.87 103.246 151.87C113.347 151.87 119.972 147.98 127.023 141.245L132.491 146.61C124.813 154.397 116.392 159.548 103.033 159.548C81.7759 159.561 66.1032 142.829 66.1032 121.682Z" fill="#0A2F54"/>
<path d="M154.484 81.5017H146.386V158.301H154.484V81.5017Z" fill="#0A2F54"/>
<path d="M169.957 131.26V131.047C169.957 115.374 181.002 102.752 196.048 102.752C212.147 102.752 221.402 115.581 221.402 131.467C221.402 132.52 221.402 133.154 221.298 134.097H178.165C179.321 145.886 187.633 152.51 197.314 152.51C204.785 152.51 210.046 149.46 214.46 144.832L219.508 149.356C214.04 155.457 207.409 159.561 197.101 159.561C182.159 159.555 169.957 148.096 169.957 131.26ZM213.194 128.1C212.354 118.211 206.666 109.583 195.834 109.583C186.372 109.583 179.212 117.475 178.158 128.1H213.194Z" fill="#0A2F54"/>
<path d="M231.51 142.512V142.305C231.51 130.84 240.978 124.732 254.764 124.732C261.705 124.732 266.649 125.682 271.49 127.046V125.153C271.49 115.368 265.492 110.32 255.294 110.32C248.876 110.32 243.822 112.007 238.774 114.321L236.357 107.696C242.348 104.956 248.242 103.172 256.134 103.172C263.812 103.172 269.706 105.176 273.706 109.17C277.39 112.847 279.278 118.114 279.278 125.056V158.301H271.496V150.093C267.715 155.037 261.395 159.458 251.823 159.458C241.721 159.451 231.51 153.667 231.51 142.512ZM271.593 138.305V133.044C267.599 131.887 262.228 130.73 255.604 130.73C245.399 130.73 239.718 135.144 239.718 141.989V142.195C239.718 149.033 246.026 153.034 253.393 153.034C263.392 153.034 271.593 146.933 271.593 138.305Z" fill="#0A2F54"/>
<path d="M296.54 103.909H304.638V118.108C308.632 109.06 316.524 102.539 326.832 102.959V111.684H326.199C314.307 111.684 304.638 120.208 304.638 136.618V158.288H296.54V103.909Z" fill="#0A2F54"/>
<path d="M336.313 121.682V121.475C336.313 100.542 351.992 83.3889 374.296 83.3889C387.868 83.3889 396.07 88.1198 403.127 94.8542L394.809 104.426C388.922 98.9582 382.607 95.2743 374.193 95.2743C360.2 95.2743 349.892 106.843 349.892 121.255V121.469C349.892 135.881 360.097 147.56 374.193 147.56C383.241 147.56 389.025 143.986 395.339 138.091L403.651 146.506C395.973 154.507 387.558 159.555 373.779 159.555C352.303 159.561 336.313 142.829 336.313 121.682Z" fill="#0A2F54"/>
<path d="M415.762 81.5017H428.488V111.277C432.062 106.119 437.219 101.595 445.847 101.595C458.366 101.595 465.631 110.016 465.631 122.845V158.301H452.899V126.742C452.899 118.114 448.588 113.17 441.007 113.17C433.645 113.17 428.488 118.321 428.488 126.949V158.301H415.762V81.5017Z" fill="#0A2F54"/>
<path d="M477.949 130.84V130.633C477.949 114.747 490.571 101.595 507.614 101.595C524.657 101.595 537.176 114.534 537.176 130.42V130.633C537.176 146.409 524.553 159.561 507.407 159.561C490.461 159.555 477.949 146.616 477.949 130.84ZM524.444 130.84V130.633C524.444 120.848 517.399 112.75 507.401 112.75C497.196 112.75 490.675 120.751 490.675 130.426V130.64C490.675 140.315 497.726 148.419 507.614 148.419C517.922 148.406 524.444 140.412 524.444 130.84Z" fill="#0A2F54"/>
<path d="M563.596 102.752H550.864V158.301H563.596V102.752Z" fill="#0A2F54"/>
<path d="M577.175 130.84V130.633C577.175 114.851 589.377 101.595 606.103 101.595C616.521 101.595 623.043 105.486 628.297 111.167L620.302 119.685C616.412 115.581 612.301 112.744 606 112.744C596.738 112.744 589.901 120.745 589.901 130.42V130.633C589.901 140.521 596.738 148.413 606.523 148.413C612.514 148.413 616.935 145.679 620.936 141.575L628.614 149.15C623.146 155.251 616.722 159.561 605.89 159.561C589.377 159.555 577.175 146.616 577.175 130.84Z" fill="#0A2F54"/>
<path d="M635.678 130.73V130.517C635.678 114.631 646.93 101.589 662.822 101.589C680.498 101.589 689.437 115.478 689.437 131.467C689.437 132.624 689.333 133.781 689.223 135.041H648.41C649.78 144.089 656.191 149.137 664.399 149.137C670.604 149.137 675.024 146.823 679.445 142.506L686.916 149.137C681.662 155.451 674.397 159.548 664.192 159.548C648.093 159.555 635.678 147.883 635.678 130.73ZM676.814 126.633C675.968 118.425 671.127 112.007 662.712 112.007C654.931 112.007 649.457 118.005 648.3 126.633H676.814Z" fill="#0A2F54"/>
<path d="M74.7894 199.328H83.1525C90.1971 199.328 95.0702 204.169 95.0702 210.477V210.535C95.0702 216.843 90.2036 221.748 83.1525 221.748H74.7894V199.328ZM78.7318 202.915V218.161H83.1525C87.864 218.161 90.9339 214.994 90.9339 210.599V210.535C90.9339 206.146 87.864 202.908 83.1525 202.908H78.7318V202.915Z" fill="#0A2F54"/>
<path d="M107.363 199.328H123.985V202.857H111.299V208.68H122.544V212.209H111.299V218.226H124.141V221.748H107.363V199.328Z" fill="#0A2F54"/>
<path d="M136.343 199.328H139.994L152.009 214.833V199.328H155.88V221.748H152.584L140.22 205.797V221.748H136.343V199.328Z" fill="#0A2F54"/>
<path d="M174.681 202.98H167.565V199.334H185.758V202.98H178.649V221.748H174.681V202.98Z" fill="#0A2F54"/>
<path d="M202.51 199.166H206.162L216.025 221.748H211.862L209.587 216.339H198.988L196.681 221.748H192.648L202.51 199.166ZM208.146 212.842L204.268 203.878L200.429 212.842H208.146Z" fill="#0A2F54"/>
<path d="M227.393 199.328H231.329V218.167H243.117V221.748H227.393V199.328Z" fill="#0A2F54"/>
<path d="M276.04 199.328H272.097V221.748H276.04V199.328Z" fill="#0A2F54"/>
<path d="M289.547 199.328H293.742L300.567 209.934L307.391 199.328H311.586V221.748H307.65V205.668L300.567 216.242H300.437L293.425 205.739V221.748H289.547V199.328Z" fill="#0A2F54"/>
<path d="M324.874 199.328H333.715C338.969 199.328 342.233 202.307 342.233 206.825V206.883C342.233 211.911 338.2 214.542 333.269 214.542H328.816V221.748H324.88V199.328H324.874ZM333.392 210.987C336.371 210.987 338.233 209.32 338.233 206.987V206.922C338.233 204.298 336.339 202.915 333.392 202.915H328.81V210.987H333.392Z" fill="#0A2F54"/>
<path d="M353.789 199.328H357.731V218.167H369.52V221.748H353.789V199.328Z" fill="#0A2F54"/>
<path d="M389.083 199.166H392.735L402.597 221.748H398.435L396.16 216.339H385.561L383.254 221.748H379.221L389.083 199.166ZM394.719 212.842L390.841 203.878L387.002 212.842H394.719Z" fill="#0A2F54"/>
<path d="M413.966 199.328H417.617L429.632 214.833V199.328H433.503V221.748H430.207L417.844 205.797V221.748H413.966V199.328Z" fill="#0A2F54"/>
<path d="M452.298 202.98H445.188V199.334H463.388V202.98H456.272V221.748H452.298V202.98Z" fill="#0A2F54"/>
<path d="M491.211 210.606V210.541C491.211 204.169 495.981 198.947 502.773 198.947C506.903 198.947 509.404 200.381 511.55 202.437L509.023 205.351C507.233 203.684 505.307 202.566 502.747 202.566C498.488 202.566 495.347 206.088 495.347 210.477V210.541C495.347 214.93 498.456 218.484 502.747 218.484C505.501 218.484 507.259 217.398 509.184 215.602L511.712 218.168C509.372 220.598 506.813 222.136 502.618 222.136C496.078 222.136 491.211 217.043 491.211 210.606Z" fill="#0A2F54"/>
<path d="M523.364 199.328H539.987V202.857H527.307V208.68H538.546V212.209H527.307V218.226H540.149V221.748H523.364V199.328Z" fill="#0A2F54"/>
<path d="M552.344 199.328H555.996L568.004 214.833V199.328H571.882V221.748H568.586L556.222 205.797V221.748H552.344V199.328Z" fill="#0A2F54"/>
<path d="M590.682 202.98H583.567V199.334H601.766V202.98H594.651V221.748H590.682V202.98Z" fill="#0A2F54"/>
<path d="M613.452 199.328H630.074V202.857H617.387V208.68H628.633V212.209H617.387V218.226H630.229V221.748H613.452V199.328Z" fill="#0A2F54"/>
<path d="M642.431 199.328H652.423C655.241 199.328 657.451 200.162 658.893 201.571C660.082 202.786 660.754 204.453 660.754 206.405V206.47C660.754 210.153 658.544 212.364 655.435 213.256L661.491 221.741H656.818L651.305 213.928H646.374V221.741H642.431V199.328ZM652.132 210.444C654.95 210.444 656.747 208.971 656.747 206.696V206.638C656.747 204.233 655.015 202.921 652.1 202.921H646.367V210.451H652.132V210.444Z" fill="#0A2F54"/>
<path d="M671.605 218.484L673.977 215.666C676.123 217.521 678.301 218.581 681.061 218.581C683.491 218.581 685.029 217.424 685.029 215.757V215.692C685.029 214.096 684.137 213.223 679.968 212.267C675.199 211.11 672.504 209.701 672.504 205.571V205.507C672.504 201.661 675.709 199.005 680.156 199.005C683.426 199.005 686.018 199.994 688.293 201.823L686.179 204.802C684.163 203.296 682.146 202.495 680.091 202.495C677.784 202.495 676.446 203.684 676.446 205.158V205.222C676.446 206.954 677.467 207.717 681.797 208.744C686.541 209.895 688.971 211.595 688.971 215.311V215.375C688.971 219.576 685.669 222.071 680.964 222.071C677.532 222.071 674.294 220.888 671.605 218.484Z" fill="#0A2F54"/>
<path d="M691.718 93.3547C695.253 93.3547 698 96.1015 698 99.5204C698 103.017 695.253 105.725 691.686 105.725C688.15 105.725 685.333 103.017 685.333 99.5204C685.333 96.1015 688.157 93.3547 691.686 93.3547H691.718ZM691.647 94.5956C688.939 94.5956 686.91 96.8124 686.91 99.5204C686.91 102.261 688.939 104.445 691.718 104.445C694.432 104.484 696.423 102.261 696.423 99.5204C696.423 96.8124 694.432 94.5956 691.686 94.5956H691.647ZM690.703 102.72H689.275V96.5927C689.837 96.4828 690.626 96.3665 691.647 96.3665C692.817 96.3665 693.34 96.5539 693.793 96.8577C694.129 97.1162 694.394 97.6074 694.394 98.1697C694.394 98.887 693.864 99.4105 693.114 99.6367V99.7143C693.715 99.9017 694.058 100.393 694.239 101.22C694.432 102.157 694.536 102.532 694.691 102.72H693.146C692.959 102.493 692.849 101.97 692.655 101.252C692.545 100.574 692.164 100.277 691.375 100.277H690.697V102.72H690.703ZM690.742 99.2554H691.421C692.216 99.2554 692.849 98.9904 692.849 98.3571C692.849 97.7883 692.435 97.4135 691.537 97.4135C691.156 97.4135 690.891 97.4523 690.749 97.4846V99.2554H690.742Z" fill="#0A2F54"/>
</svg>
